<?xml version="1.0" standalone="no"?><!DOCTYPE svg PUBLIC "-//W3C//DTD SVG 1.1//EN" "http://www.w3.org/Graphics/SVG/1.1/DTD/svg11.dtd"><svg t="1775995058853" class="icon" viewBox="0 0 1024 1024" version="1.1" xmlns="http://www.w3.org/2000/svg" p-id="7108" xmlns:xlink="http://www.w3.org/1999/xlink" width="48" height="48"><path d="M509.44 725.333333c-200.533333 0-362.666667-162.133333-362.666667-362.666666S308.906667 0 509.44 0s362.666667 162.133333 362.666667 362.666667S709.973333 725.333333 509.44 725.333333z m0-640c-153.6 0-277.333333 123.733333-277.333333 277.333334S355.84 640 509.44 640s277.333333-123.733333 277.333333-277.333333S663.04 85.333333 509.44 85.333333z" fill="#2196F3" p-id="7109"></path><path d="M65.706667 1024c-5.973333 0-15.36-2.56-21.333334-6.826667-21.333333-11.093333-28.16-38.4-15.36-58.026666 96.426667-170.666667 281.6-277.333333 480.426667-277.333334 200.533333 0 379.733333 104.96 479.573333 277.333334 12.8 21.333333 4.266667 46.933333-15.36 58.026666-21.333333 12.8-46.933333 4.266667-58.026666-15.36-85.333333-147.626667-238.933333-234.666667-407.04-234.666666-168.96 0-324.266667 89.6-407.04 234.666666-5.973333 13.653333-20.48 22.186667-35.84 22.186667z" fill="#2196F3" p-id="7110"></path><path d="M509.44 597.333333c-74.24 0-145.066667-40.96-183.466667-106.666666-12.8-21.333333-4.266667-46.933333 15.36-57.173334 21.333333-12.8 46.933333-4.266667 57.173334 15.36 23.893333 40.96 66.56 64 110.933333 64s87.04-25.6 110.933333-64c12.8-21.333333 38.4-28.16 58.026667-15.36 21.333333 12.8 28.16 38.4 15.36 58.026667C654.506667 557.226667 584.533333 597.333333 509.44 597.333333z" fill="#4CAF50" p-id="7111"></path></svg>