<?xml version="1.0" encoding="UTF-8"?>
<svg xmlns="http://www.w3.org/2000/svg" width="1000" height="410" viewBox="0 0 1000 410">
  <rect width="100%" height="100%" fill="#ffffff"/>
  <g stroke="#000" stroke-width="1.2" fill="none">
    <line x1="500" y1="60" x2="500" y2="72"/>
    <line x1="145" y1="72" x2="835" y2="72"/>
    <line x1="145" y1="72" x2="145" y2="98"/>
    <line x1="375" y1="72" x2="375" y2="98"/>
    <line x1="605" y1="72" x2="605" y2="98"/>
    <line x1="835" y1="72" x2="835" y2="98"/>
    <line x1="145" y1="132" x2="145" y2="335"/>
    <line x1="375" y1="132" x2="375" y2="372"/>
    <line x1="605" y1="132" x2="605" y2="335"/>
    <line x1="835" y1="132" x2="835" y2="335"/>
  </g>
  <rect x="330" y="18" width="340" height="42" fill="#fff" stroke="#000" stroke-width="1.5"/>
  <text x="500" y="45" text-anchor="middle" font-size="15" font-weight="bold" fill="#000" font-family="Microsoft YaHei, SimHei, sans-serif">&#x57FA;&#x4E8E;&#x43;&#x2F;&#x53;&#x6A21;&#x5F0F;&#x7684;&#x5C40;&#x57DF;&#x7F51;&#x804A;&#x5929;&#x7CFB;&#x7EDF;</text>
  <rect x="40" y="98" width="210" height="34" fill="#fff" stroke="#000" stroke-width="1.3"/>
  <text x="145" y="120" text-anchor="middle" font-size="13" fill="#000" font-family="Microsoft YaHei, SimHei, sans-serif">&#x7528;&#x6237;&#x7BA1;&#x7406;&#x6A21;&#x5757;</text>
  <rect x="270" y="98" width="210" height="34" fill="#fff" stroke="#000" stroke-width="1.3"/>
  <text x="375" y="120" text-anchor="middle" font-size="13" fill="#000" font-family="Microsoft YaHei, SimHei, sans-serif">&#x597D;&#x53CB;&#x7BA1;&#x7406;&#x6A21;&#x5757;</text>
  <rect x="500" y="98" width="210" height="34" fill="#fff" stroke="#000" stroke-width="1.3"/>
  <text x="605" y="120" text-anchor="middle" font-size="13" fill="#000" font-family="Microsoft YaHei, SimHei, sans-serif">&#x5373;&#x65F6;&#x901A;&#x8BAF;&#x6A21;&#x5757;</text>
  <rect x="730" y="98" width="210" height="34" fill="#fff" stroke="#000" stroke-width="1.3"/>
  <text x="835" y="120" text-anchor="middle" font-size="13" fill="#000" font-family="Microsoft YaHei, SimHei, sans-serif">&#x6570;&#x636E;&#x7BA1;&#x7406;&#x6A21;&#x5757;</text>
  <rect x="46" y="144" width="198" height="32" fill="#fff" stroke="#000" stroke-width="1"/>
  <text x="145" y="164" text-anchor="middle" font-size="11" fill="#000" font-family="Microsoft YaHei, SimHei, sans-serif">&#x6CE8;&#x518C;&#x4E0E;&#x767B;&#x5F55;</text>
  <rect x="46" y="181" width="198" height="32" fill="#fff" stroke="#000" stroke-width="1"/>
  <text x="145" y="201" text-anchor="middle" font-size="11" fill="#000" font-family="Microsoft YaHei, SimHei, sans-serif">&#x90AE;&#x7BB1;&#x9A8C;&#x8BC1;&#x7801;</text>
  <rect x="46" y="218" width="198" height="32" fill="#fff" stroke="#000" stroke-width="1"/>
  <text x="145" y="238" text-anchor="middle" font-size="11" fill="#000" font-family="Microsoft YaHei, SimHei, sans-serif">&#x4E2A;&#x4EBA;&#x4FE1;&#x606F;&#x7BA1;&#x7406;</text>
  <rect x="46" y="255" width="198" height="32" fill="#fff" stroke="#000" stroke-width="1"/>
  <text x="145" y="275" text-anchor="middle" font-size="11" fill="#000" font-family="Microsoft YaHei, SimHei, sans-serif">&#x5728;&#x7EBF;&#x72B6;&#x6001;</text>
  <rect x="276" y="144" width="198" height="32" fill="#fff" stroke="#000" stroke-width="1"/>
  <text x="375" y="164" text-anchor="middle" font-size="11" fill="#000" font-family="Microsoft YaHei, SimHei, sans-serif">&#x641C;&#x7D22;&#x4E0E;&#x6DFB;&#x52A0;&#x597D;&#x53CB;</text>
  <rect x="276" y="181" width="198" height="32" fill="#fff" stroke="#000" stroke-width="1"/>
  <text x="375" y="201" text-anchor="middle" font-size="11" fill="#000" font-family="Microsoft YaHei, SimHei, sans-serif">&#x53D1;&#x9001;&#x597D;&#x53CB;&#x7533;&#x8BF7;</text>
  <rect x="276" y="218" width="198" height="32" fill="#fff" stroke="#000" stroke-width="1"/>
  <text x="375" y="238" text-anchor="middle" font-size="11" fill="#000" font-family="Microsoft YaHei, SimHei, sans-serif">&#x5904;&#x7406;&#x597D;&#x53CB;&#x7533;&#x8BF7;</text>
  <rect x="276" y="255" width="198" height="32" fill="#fff" stroke="#000" stroke-width="1"/>
  <text x="375" y="275" text-anchor="middle" font-size="10.5" fill="#000" font-family="Microsoft YaHei, SimHei, sans-serif">&#x597D;&#x53CB;&#x5217;&#x8868;&#x4E0E;&#x72B6;&#x6001;</text>
  <rect x="276" y="292" width="198" height="32" fill="#fff" stroke="#000" stroke-width="1"/>
  <text x="375" y="312" text-anchor="middle" font-size="11" fill="#000" font-family="Microsoft YaHei, SimHei, sans-serif">&#x5220;&#x9664;&#x597D;&#x53CB;</text>
  <rect x="506" y="144" width="198" height="32" fill="#fff" stroke="#000" stroke-width="1"/>
  <text x="605" y="164" text-anchor="middle" font-size="11" fill="#000" font-family="Microsoft YaHei, SimHei, sans-serif">&#x6587;&#x5B57;&#x6D88;&#x606F;&#x6536;&#x53D1;</text>
  <rect x="506" y="181" width="198" height="32" fill="#fff" stroke="#000" stroke-width="1"/>
  <text x="605" y="201" text-anchor="middle" font-size="11" fill="#000" font-family="Microsoft YaHei, SimHei, sans-serif">&#x6587;&#x4EF6;&#x5206;&#x7247;&#x4F20;&#x8F93;</text>
  <rect x="506" y="218" width="198" height="32" fill="#fff" stroke="#000" stroke-width="1"/>
  <text x="605" y="238" text-anchor="middle" font-size="11" fill="#000" font-family="Microsoft YaHei, SimHei, sans-serif">&#x65B0;&#x6D88;&#x606F;&#x63D0;&#x9192;</text>
  <rect x="506" y="255" width="198" height="32" fill="#fff" stroke="#000" stroke-width="1"/>
  <text x="605" y="275" text-anchor="middle" font-size="10.5" fill="#000" font-family="Microsoft YaHei, SimHei, sans-serif">&#x8868;&#x60C5;&#x4E0E;&#x53D1;&#x9001;&#x72B6;&#x6001;</text>
  <rect x="736" y="144" width="198" height="32" fill="#fff" stroke="#000" stroke-width="1"/>
  <text x="835" y="164" text-anchor="middle" font-size="11" fill="#000" font-family="Microsoft YaHei, SimHei, sans-serif">&#x804A;&#x5929;&#x8BB0;&#x5F55;&#x67E5;&#x8BE2;</text>
  <rect x="736" y="181" width="198" height="32" fill="#fff" stroke="#000" stroke-width="1"/>
  <text x="835" y="201" text-anchor="middle" font-size="11" fill="#000" font-family="Microsoft YaHei, SimHei, sans-serif">&#x5206;&#x9875;&#x52A0;&#x8F7D;&#x5386;&#x53F2;</text>
  <rect x="736" y="218" width="198" height="32" fill="#fff" stroke="#000" stroke-width="1"/>
  <text x="835" y="238" text-anchor="middle" font-size="10.5" fill="#000" font-family="Microsoft YaHei, SimHei, sans-serif">&#x6309;&#x597D;&#x53CB;&#x7B5B;&#x9009;&#x8BB0;&#x5F55;</text>
  <rect x="736" y="255" width="198" height="32" fill="#fff" stroke="#000" stroke-width="1"/>
  <text x="835" y="275" text-anchor="middle" font-size="10.5" fill="#000" font-family="Microsoft YaHei, SimHei, sans-serif">&#x4E0E;&#x670D;&#x52A1;&#x7AEF;&#x540C;&#x6B65;</text>
</svg>
