<?xml version="1.0" encoding="UTF-8"?>
<svg xmlns="http://www.w3.org/2000/svg" width="920" height="560" viewBox="0 0 920 560">
  <rect width="100%" height="100%" fill="#ffffff"/>
  <defs>
    <marker id="m" markerWidth="8" markerHeight="8" refX="7" refY="4" orient="auto">
      <path d="M0,0 L8,4 L0,8 z" fill="#000"/>
    </marker>
  </defs>
  <g stroke="#000" stroke-width="1.1" fill="none" marker-end="url(#m)">
    <line x1="230" y1="58" x2="230" y2="78"/>
    <line x1="230" y1="104" x2="230" y2="118"/>
    <line x1="230" y1="144" x2="230" y2="158"/>
    <line x1="230" y1="184" x2="230" y2="198"/>
    <line x1="230" y1="224" x2="230" y2="238"/>
    <line x1="230" y1="264" x2="230" y2="278"/>
    <line x1="195" y1="311" x2="95" y2="311"/>
    <line x1="95" y1="311" x2="95" y2="328"/>
    <line x1="230" y1="344" x2="230" y2="358"/>
    <line x1="230" y1="384" x2="230" y2="398"/>
    <line x1="230" y1="424" x2="230" y2="500"/>
    <line x1="95" y1="354" x2="95" y2="500"/>
    <line x1="95" y1="500" x2="230" y2="500"/>
    <line x1="690" y1="58" x2="690" y2="78"/>
    <line x1="690" y1="104" x2="690" y2="118"/>
    <line x1="690" y1="144" x2="690" y2="158"/>
    <line x1="655" y1="191" x2="560" y2="191"/>
    <line x1="560" y1="191" x2="560" y2="208"/>
    <polyline points="725,191 690,191 690,208"/>
    <line x1="690" y1="234" x2="690" y2="238"/>
    <line x1="690" y1="264" x2="690" y2="288"/>
    <line x1="560" y1="234" x2="560" y2="500"/>
    <line x1="560" y1="500" x2="690" y2="500"/>
    <line x1="230" y1="500" x2="230" y2="516"/>
    <line x1="690" y1="314" x2="690" y2="500"/>
    <line x1="690" y1="500" x2="690" y2="516"/>
  </g>
  <text x="230" y="22" text-anchor="middle" font-size="12" font-weight="bold" fill="#000" font-family="Microsoft YaHei, SimHei, sans-serif">&#x6CE8;&#x518C;&#x6D41;&#x7A0B;</text>
  <text x="690" y="22" text-anchor="middle" font-size="12" font-weight="bold" fill="#000" font-family="Microsoft YaHei, SimHei, sans-serif">&#x767B;&#x5F55;&#x6D41;&#x7A0B;</text>
  <ellipse cx="230" cy="46" rx="44" ry="16" fill="#fff" stroke="#000" stroke-width="1.3"/>
  <text x="230" y="50" text-anchor="middle" font-size="11" fill="#000" font-family="Microsoft YaHei, SimHei, sans-serif">&#x5F00;&#x59CB;</text>
  <rect x="145" y="78" width="170" height="26" fill="#fff" stroke="#000"/>
  <text x="230" y="95" text-anchor="middle" font-size="10.5" fill="#000" font-family="Microsoft YaHei, SimHei, sans-serif">&#x8F93;&#x5165;&#x90AE;&#x7BB1;</text>
  <rect x="145" y="118" width="170" height="26" fill="#fff" stroke="#000"/>
  <text x="230" y="135" text-anchor="middle" font-size="10.5" fill="#000" font-family="Microsoft YaHei, SimHei, sans-serif">&#x8BF7;&#x6C42;&#x9A8C;&#x8BC1;&#x7801;</text>
  <rect x="130" y="158" width="200" height="26" fill="#fff" stroke="#000"/>
  <text x="230" y="175" text-anchor="middle" font-size="10" fill="#000" font-family="Microsoft YaHei, SimHei, sans-serif">&#x670D;&#x52A1;&#x7AEF;&#x751F;&#x6210;&#x9A8C;&#x8BC1;&#x7801;</text>
  <rect x="130" y="198" width="200" height="26" fill="#fff" stroke="#000"/>
  <text x="230" y="215" text-anchor="middle" font-size="10" fill="#000" font-family="Microsoft YaHei, SimHei, sans-serif">&#x8C03;&#x7528;&#x90AE;&#x4EF6;&#x670D;&#x52A1;&#x53D1;&#x4FE1;</text>
  <rect x="125" y="238" width="210" height="26" fill="#fff" stroke="#000"/>
  <text x="230" y="255" text-anchor="middle" font-size="10" fill="#000" font-family="Microsoft YaHei, SimHei, sans-serif">&#x8F93;&#x5165;&#x9A8C;&#x8BC1;&#x7801;&#x4E0E;&#x5BC6;&#x7801;</text>
  <polygon points="230,278 265,311 230,344 195,311" fill="#fff" stroke="#000" stroke-width="1.1"/>
  <text x="230" y="314" text-anchor="middle" font-size="9.5" fill="#000" font-family="Microsoft YaHei, SimHei, sans-serif">&#x6821;&#x9A8C;&#x901A;&#x8FC7;</text>
  <rect x="25" y="328" width="140" height="26" fill="#fff" stroke="#000"/>
  <text x="95" y="345" text-anchor="middle" font-size="10" fill="#000" font-family="Microsoft YaHei, SimHei, sans-serif">&#x8FD4;&#x56DE;&#x9519;&#x8BEF;&#x63D0;&#x793A;</text>
  <rect x="145" y="358" width="170" height="26" fill="#fff" stroke="#000"/>
  <text x="230" y="375" text-anchor="middle" font-size="10.5" fill="#000" font-family="Microsoft YaHei, SimHei, sans-serif">&#x5199;&#x5165;&#x7528;&#x6237;&#x8868;</text>
  <rect x="145" y="398" width="170" height="26" fill="#fff" stroke="#000"/>
  <text x="230" y="415" text-anchor="middle" font-size="10.5" fill="#000" font-family="Microsoft YaHei, SimHei, sans-serif">&#x6CE8;&#x518C;&#x6210;&#x529F;</text>
  <ellipse cx="230" cy="516" rx="44" ry="16" fill="#fff" stroke="#000" stroke-width="1.3"/>
  <text x="230" y="520" text-anchor="middle" font-size="11" fill="#000" font-family="Microsoft YaHei, SimHei, sans-serif">&#x7ED3;&#x675F;</text>
  <text x="160" y="305" font-size="9" fill="#000" font-family="Microsoft YaHei, SimHei, sans-serif">&#x5426;</text>
  <text x="245" y="335" font-size="9" fill="#000" font-family="Microsoft YaHei, SimHei, sans-serif">&#x662F;</text>
  <ellipse cx="690" cy="46" rx="44" ry="16" fill="#fff" stroke="#000" stroke-width="1.3"/>
  <text x="690" y="50" text-anchor="middle" font-size="11" fill="#000" font-family="Microsoft YaHei, SimHei, sans-serif">&#x5F00;&#x59CB;</text>
  <rect x="605" y="78" width="170" height="26" fill="#fff" stroke="#000"/>
  <text x="690" y="95" text-anchor="middle" font-size="10.5" fill="#000" font-family="Microsoft YaHei, SimHei, sans-serif">&#x8F93;&#x5165;&#x8D26;&#x53F7;&#x5BC6;&#x7801;</text>
  <rect x="600" y="118" width="180" height="26" fill="#fff" stroke="#000"/>
  <text x="690" y="135" text-anchor="middle" font-size="10" fill="#000" font-family="Microsoft YaHei, SimHei, sans-serif">&#x53D1;&#x9001;&#x767B;&#x5F55;&#x8BF7;&#x6C42;</text>
  <polygon points="690,158 725,191 690,224 655,191" fill="#fff" stroke="#000" stroke-width="1.1"/>
  <text x="690" y="195" text-anchor="middle" font-size="9.5" fill="#000" font-family="Microsoft YaHei, SimHei, sans-serif">&#x51ED;&#x636E;&#x6B63;&#x786E;</text>
  <rect x="490" y="208" width="140" height="26" fill="#fff" stroke="#000"/>
  <text x="560" y="225" text-anchor="middle" font-size="10" fill="#000" font-family="Microsoft YaHei, SimHei, sans-serif">&#x8FD4;&#x56DE;&#x9519;&#x8BEF;&#x63D0;&#x793A;</text>
  <rect x="605" y="208" width="170" height="26" fill="#fff" stroke="#000"/>
  <text x="690" y="225" text-anchor="middle" font-size="10" fill="#000" font-family="Microsoft YaHei, SimHei, sans-serif">&#x5EFA;&#x7ACB;&#x4F1A;&#x8BDD;</text>
  <rect x="615" y="238" width="150" height="26" fill="#fff" stroke="#000"/>
  <text x="690" y="255" text-anchor="middle" font-size="9.5" fill="#000" font-family="Microsoft YaHei, SimHei, sans-serif">&#x63A8;&#x9001;&#x597D;&#x53CB;&#x4E0A;&#x7EBF;&#x901A;&#x77E5;</text>
  <rect x="605" y="288" width="170" height="26" fill="#fff" stroke="#000"/>
  <text x="690" y="305" text-anchor="middle" font-size="10.5" fill="#000" font-family="Microsoft YaHei, SimHei, sans-serif">&#x767B;&#x5F55;&#x6210;&#x529F;</text>
  <ellipse cx="690" cy="516" rx="44" ry="16" fill="#fff" stroke="#000" stroke-width="1.3"/>
  <text x="690" y="520" text-anchor="middle" font-size="11" fill="#000" font-family="Microsoft YaHei, SimHei, sans-serif">&#x7ED3;&#x675F;</text>
  <text x="635" y="185" font-size="9" fill="#000" font-family="Microsoft YaHei, SimHei, sans-serif">&#x5426;</text>
  <text x="750" y="185" font-size="9" fill="#000" font-family="Microsoft YaHei, SimHei, sans-serif">&#x662F;</text>
</svg>
