<?xml version="1.0" encoding="UTF-8"?>
<svg xmlns="http://www.w3.org/2000/svg" width="640" height="420" viewBox="0 0 640 420">
  <rect width="100%" height="100%" fill="#ffffff"/>
  <defs>
    <marker id="mm" markerWidth="8" markerHeight="8" refX="7" refY="4" orient="auto">
      <path d="M0,0 L8,4 L0,8 z" fill="#000"/>
    </marker>
  </defs>
  <g stroke="#000" stroke-width="1.1" fill="none" marker-end="url(#mm)">
    <line x1="320" y1="58" x2="320" y2="78"/>
    <line x1="320" y1="104" x2="320" y2="118"/>
    <line x1="320" y1="144" x2="320" y2="158"/>
    <line x1="285" y1="191" x2="130" y2="191"/>
    <line x1="130" y1="191" x2="130" y2="208"/>
    <line x1="355" y1="191" x2="510" y2="191"/>
    <line x1="510" y1="191" x2="510" y2="208"/>
    <polyline points="130,234 130,258 320,258"/>
    <polyline points="510,234 510,258 320,258"/>
    <line x1="320" y1="258" x2="320" y2="272"/>
    <line x1="320" y1="298" x2="320" y2="344"/>
  </g>
  <ellipse cx="320" cy="46" rx="44" ry="16" fill="#fff" stroke="#000" stroke-width="1.3"/>
  <text x="320" y="50" text-anchor="middle" font-size="11" fill="#000" font-family="Microsoft YaHei, SimHei, sans-serif">&#x5F00;&#x59CB;</text>
  <rect x="200" y="78" width="240" height="26" fill="#fff" stroke="#000"/>
  <text x="320" y="95" text-anchor="middle" font-size="10.5" fill="#000" font-family="Microsoft YaHei, SimHei, sans-serif">&#x53D1;&#x9001;&#x65B9;&#x5C01;&#x88C5;&#x534F;&#x8BAE;&#x62A5;&#x6587;</text>
  <rect x="215" y="118" width="210" height="26" fill="#fff" stroke="#000"/>
  <text x="320" y="135" text-anchor="middle" font-size="10.5" fill="#000" font-family="Microsoft YaHei, SimHei, sans-serif">&#x670D;&#x52A1;&#x7AEF;&#x63A5;&#x6536;&#x5E76;&#x89E3;&#x6790;</text>
  <polygon points="320,158 360,191 320,224 280,191" fill="#fff" stroke="#000" stroke-width="1.1"/>
  <text x="320" y="194" text-anchor="middle" font-size="10" fill="#000" font-family="Microsoft YaHei, SimHei, sans-serif">&#x63A5;&#x6536;&#x65B9;&#x5728;&#x7EBF;</text>
  <rect x="60" y="208" width="140" height="26" fill="#fff" stroke="#000"/>
  <text x="130" y="225" text-anchor="middle" font-size="10" fill="#000" font-family="Microsoft YaHei, SimHei, sans-serif">&#x5199;&#x5165;&#x79BB;&#x7EBF;&#x6D88;&#x606F;</text>
  <rect x="440" y="208" width="140" height="26" fill="#fff" stroke="#000"/>
  <text x="510" y="225" text-anchor="middle" font-size="10" fill="#000" font-family="Microsoft YaHei, SimHei, sans-serif">&#x8F6C;&#x53D1;&#x81F3;&#x5BF9;&#x7AEF;&#x8FDE;&#x63A5;</text>
  <rect x="235" y="272" width="170" height="26" fill="#fff" stroke="#000"/>
  <text x="320" y="289" text-anchor="middle" font-size="10" fill="#000" font-family="Microsoft YaHei, SimHei, sans-serif">&#x53EF;&#x9009;&#xFF1A;&#x66F4;&#x65B0;&#x5DF2;&#x8BFB;&#x72B6;&#x6001;</text>
  <ellipse cx="320" cy="360" rx="44" ry="16" fill="#fff" stroke="#000" stroke-width="1.3"/>
  <text x="320" y="364" text-anchor="middle" font-size="11" fill="#000" font-family="Microsoft YaHei, SimHei, sans-serif">&#x7ED3;&#x675F;</text>
  <text x="250" y="182" font-size="9" fill="#000" font-family="Microsoft YaHei, SimHei, sans-serif">&#x5426;</text>
  <text x="385" y="182" font-size="9" fill="#000" font-family="Microsoft YaHei, SimHei, sans-serif">&#x662F;</text>
</svg>
