<?xml version="1.0" encoding="UTF-8"?>
<svg xmlns="http://www.w3.org/2000/svg" width="720" height="420" viewBox="0 0 720 420">
  <rect width="100%" height="100%" fill="#ffffff"/>
  <defs>
    <marker id="mc" markerWidth="8" markerHeight="8" refX="7" refY="4" orient="auto">
      <path d="M0,0 L8,4 L0,8 z" fill="#000"/>
    </marker>
  </defs>
  <g stroke="#000" stroke-width="1.1" fill="none" marker-end="url(#mc)">
    <line x1="360" y1="58" x2="360" y2="78"/>
    <line x1="360" y1="104" x2="360" y2="118"/>
    <line x1="360" y1="144" x2="360" y2="158"/>
    <polyline points="320,191 200,191 200,208"/>
    <polyline points="400,191 560,191 560,208"/>
    <line x1="200" y1="234" x2="200" y2="252"/>
    <polyline points="200,252 360,252 360,260"/>
    <line x1="360" y1="286" x2="360" y2="328"/>
    <line x1="560" y1="234" x2="560" y2="270"/>
    <path d="M 560 270 L 660 270 L 660 105 L 360 105 L 360 118" fill="none"/>
  </g>
  <ellipse cx="360" cy="46" rx="44" ry="16" fill="#fff" stroke="#000" stroke-width="1.3"/>
  <text x="360" y="50" text-anchor="middle" font-size="11" fill="#000" font-family="Microsoft YaHei, SimHei, sans-serif">&#x5F00;&#x59CB;</text>
  <rect x="220" y="78" width="280" height="26" fill="#fff" stroke="#000"/>
  <text x="360" y="95" text-anchor="middle" font-size="10" fill="#000" font-family="Microsoft YaHei, SimHei, sans-serif">&#x534F;&#x5546;&#x6587;&#x4EF6;&#x5143;&#x6570;&#x636E;&#xFF08;&#x540D;&#x79F0;&#x3001;&#x5927;&#x5C0F;&#x3001;&#x4F1A;&#x8BDD;ID&#xFF09;</text>
  <rect x="250" y="118" width="220" height="26" fill="#fff" stroke="#000"/>
  <text x="360" y="135" text-anchor="middle" font-size="10.5" fill="#000" font-family="Microsoft YaHei, SimHei, sans-serif">&#x6309;&#x56FA;&#x5B9A;&#x5927;&#x5C0F;&#x8BFB;&#x53D6;&#x5206;&#x7247;</text>
  <polygon points="360,158 400,191 360,224 320,191" fill="#fff" stroke="#000" stroke-width="1.1"/>
  <text x="360" y="194" text-anchor="middle" font-size="10" fill="#000" font-family="Microsoft YaHei, SimHei, sans-serif">&#x8FD8;&#x6709;&#x5206;&#x7247;</text>
  <rect x="110" y="208" width="180" height="26" fill="#fff" stroke="#000"/>
  <text x="200" y="225" text-anchor="middle" font-size="9.5" fill="#000" font-family="Microsoft YaHei, SimHei, sans-serif">&#x6821;&#x9A8C;&#x5E76;&#x5408;&#x5E76;</text>
  <rect x="490" y="208" width="140" height="26" fill="#fff" stroke="#000"/>
  <text x="560" y="225" text-anchor="middle" font-size="9.5" fill="#000" font-family="Microsoft YaHei, SimHei, sans-serif">&#x53D1;&#x9001;&#x4E0E;&#x63A5;&#x6536;&#x5199;&#x5165;</text>
  <rect x="250" y="260" width="220" height="26" fill="#fff" stroke="#000"/>
  <text x="360" y="277" text-anchor="middle" font-size="10" fill="#000" font-family="Microsoft YaHei, SimHei, sans-serif">&#x66F4;&#x65B0;&#x6587;&#x4EF6;&#x4F20;&#x8F93;&#x8BB0;&#x5F55;</text>
  <ellipse cx="360" cy="360" rx="44" ry="16" fill="#fff" stroke="#000" stroke-width="1.3"/>
  <text x="360" y="364" text-anchor="middle" font-size="11" fill="#000" font-family="Microsoft YaHei, SimHei, sans-serif">&#x7ED3;&#x675F;</text>
  <text x="265" y="182" font-size="9" fill="#000" font-family="Microsoft YaHei, SimHei, sans-serif">&#x5426;</text>
  <text x="420" y="182" font-size="9" fill="#000" font-family="Microsoft YaHei, SimHei, sans-serif">&#x662F;</text>
  <text x="668" y="188" font-size="9" fill="#000" font-family="Microsoft YaHei, SimHei, sans-serif">&#x7EE7;&#x7EED;&#x5206;&#x7247;</text>
  <text x="360" y="308" text-anchor="middle" font-size="9" fill="#666" font-family="Microsoft YaHei, SimHei, sans-serif">&#xFF08;&#x5FAA;&#x73AF;&#x8FC7;&#x7A0B;&#x53EF;&#x53CD;&#x9988;&#x8FDB;&#x5EA6;&#xFF09;</text>
</svg>
