<?xml version="1.0" encoding="UTF-8"?>
<svg xmlns="http://www.w3.org/2000/svg" width="760" height="400" viewBox="0 0 760 400">
  <rect width="100%" height="100%" fill="#ffffff"/>
  <defs>
    <marker id="arrd" markerWidth="9" markerHeight="9" refX="8" refY="4.5" orient="auto">
      <path d="M0,0 L9,4.5 L0,9 z" fill="#000"/>
    </marker>
  </defs>
  <circle cx="78" cy="88" r="14" fill="none" stroke="#000" stroke-width="1.4"/>
  <line x1="78" y1="102" x2="78" y2="158" stroke="#000" stroke-width="1.4"/>
  <line x1="78" y1="118" x2="48" y2="148" stroke="#000" stroke-width="1.4"/>
  <line x1="78" y1="118" x2="108" y2="148" stroke="#000" stroke-width="1.4"/>
  <line x1="78" y1="158" x2="52" y2="202" stroke="#000" stroke-width="1.4"/>
  <line x1="78" y1="158" x2="104" y2="202" stroke="#000" stroke-width="1.4"/>
  <text x="78" y="228" text-anchor="middle" font-size="14" fill="#000" font-family="Microsoft YaHei, SimHei, sans-serif">&#x666E;&#x901A;&#x7528;&#x6237;</text>
  <rect x="228" y="32" width="510" height="336" fill="none" stroke="#000" stroke-width="1.5"/>
  <text x="483" y="56" text-anchor="middle" font-size="15" font-weight="bold" fill="#000" font-family="Microsoft YaHei, SimHei, sans-serif">&#x6570;&#x636E;&#x7BA1;&#x7406;&#x6A21;&#x5757;</text>
  <ellipse cx="430" cy="95" rx="105" ry="30" fill="#fff" stroke="#000" stroke-width="1.2"/>
  <text x="430" y="100" text-anchor="middle" font-size="13" fill="#000" font-family="Microsoft YaHei, SimHei, sans-serif">&#x804A;&#x5929;&#x8BB0;&#x5F55;&#x67E5;&#x8BE2;</text>
  <ellipse cx="430" cy="175" rx="118" ry="30" fill="#fff" stroke="#000" stroke-width="1.2"/>
  <text x="430" y="180" text-anchor="middle" font-size="12" fill="#000" font-family="Microsoft YaHei, SimHei, sans-serif">&#x5206;&#x9875;&#x52A0;&#x8F7D;&#x5386;&#x53F2;&#x6D88;&#x606F;</text>
  <ellipse cx="430" cy="255" rx="118" ry="30" fill="#fff" stroke="#000" stroke-width="1.2"/>
  <text x="430" y="260" text-anchor="middle" font-size="12" fill="#000" font-family="Microsoft YaHei, SimHei, sans-serif">&#x6309;&#x597D;&#x53CB;&#x7B5B;&#x9009;&#x8BB0;&#x5F55;</text>
  <ellipse cx="430" cy="335" rx="105" ry="30" fill="#fff" stroke="#000" stroke-width="1.2"/>
  <text x="430" y="340" text-anchor="middle" font-size="13" fill="#000" font-family="Microsoft YaHei, SimHei, sans-serif">&#x4E0E;&#x670D;&#x52A1;&#x7AEF;&#x6570;&#x636E;&#x540C;&#x6B65;</text>
  <line x1="118" y1="120" x2="313" y2="95" stroke="#000" stroke-width="1" marker-end="url(#arrd)"/>
  <text x="185" y="88" font-size="11" fill="#000" font-family="Microsoft YaHei, SimHei, sans-serif">&#x68C0;&#x7D22;&#x8BB0;&#x5F55;</text>
  <line x1="118" y1="138" x2="304" y2="175" stroke="#000" stroke-width="1" marker-end="url(#arrd)"/>
  <text x="175" y="162" font-size="11" fill="#000" font-family="Microsoft YaHei, SimHei, sans-serif">&#x5206;&#x9875;&#x6D4F;&#x89C8;</text>
  <line x1="118" y1="155" x2="304" y2="255" stroke="#000" stroke-width="1" marker-end="url(#arrd)"/>
  <text x="175" y="228" font-size="11" fill="#000" font-family="Microsoft YaHei, SimHei, sans-serif">&#x7B5B;&#x9009;&#x4F1A;&#x8BDD;</text>
  <line x1="118" y1="172" x2="313" y2="335" stroke="#000" stroke-width="1" marker-end="url(#arrd)"/>
  <text x="175" y="288" font-size="11" fill="#000" font-family="Microsoft YaHei, SimHei, sans-serif">&#x62C9;&#x53D6;&#x66F4;&#x65B0;</text>
</svg>
