<?xml version="1.0" encoding="UTF-8"?>
<svg xmlns="http://www.w3.org/2000/svg" width="760" height="460" viewBox="0 0 760 460">
  <rect width="100%" height="100%" fill="#ffffff"/>
  <defs>
    <marker id="arri" markerWidth="9" markerHeight="9" refX="8" refY="4.5" orient="auto">
      <path d="M0,0 L9,4.5 L0,9 z" fill="#000"/>
    </marker>
  </defs>
  <circle cx="78" cy="98" r="14" fill="none" stroke="#000" stroke-width="1.4"/>
  <line x1="78" y1="112" x2="78" y2="168" stroke="#000" stroke-width="1.4"/>
  <line x1="78" y1="128" x2="48" y2="158" stroke="#000" stroke-width="1.4"/>
  <line x1="78" y1="128" x2="108" y2="158" stroke="#000" stroke-width="1.4"/>
  <line x1="78" y1="168" x2="52" y2="212" stroke="#000" stroke-width="1.4"/>
  <line x1="78" y1="168" x2="104" y2="212" stroke="#000" stroke-width="1.4"/>
  <text x="78" y="238" text-anchor="middle" font-size="14" fill="#000" font-family="Microsoft YaHei, SimHei, sans-serif">&#x666E;&#x901A;&#x7528;&#x6237;</text>
  <rect x="228" y="28" width="510" height="404" fill="none" stroke="#000" stroke-width="1.5"/>
  <text x="483" y="52" text-anchor="middle" font-size="15" font-weight="bold" fill="#000" font-family="Microsoft YaHei, SimHei, sans-serif">&#x5373;&#x65F6;&#x901A;&#x8BAF;&#x6A21;&#x5757;</text>
  <ellipse cx="430" cy="82" rx="100" ry="28" fill="#fff" stroke="#000" stroke-width="1.2"/>
  <text x="430" y="87" text-anchor="middle" font-size="13" fill="#000" font-family="Microsoft YaHei, SimHei, sans-serif">&#x53D1;&#x9001;&#x6587;&#x5B57;&#x6D88;&#x606F;</text>
  <ellipse cx="430" cy="142" rx="100" ry="28" fill="#fff" stroke="#000" stroke-width="1.2"/>
  <text x="430" y="147" text-anchor="middle" font-size="13" fill="#000" font-family="Microsoft YaHei, SimHei, sans-serif">&#x63A5;&#x6536;&#x6587;&#x5B57;&#x6D88;&#x606F;</text>
  <ellipse cx="430" cy="202" rx="88" ry="28" fill="#fff" stroke="#000" stroke-width="1.2"/>
  <text x="430" y="207" text-anchor="middle" font-size="13" fill="#000" font-family="Microsoft YaHei, SimHei, sans-serif">&#x53D1;&#x9001;&#x6587;&#x4EF6;</text>
  <ellipse cx="430" cy="262" rx="88" ry="28" fill="#fff" stroke="#000" stroke-width="1.2"/>
  <text x="430" y="267" text-anchor="middle" font-size="13" fill="#000" font-family="Microsoft YaHei, SimHei, sans-serif">&#x63A5;&#x6536;&#x6587;&#x4EF6;</text>
  <ellipse cx="430" cy="322" rx="88" ry="28" fill="#fff" stroke="#000" stroke-width="1.2"/>
  <text x="430" y="327" text-anchor="middle" font-size="13" fill="#000" font-family="Microsoft YaHei, SimHei, sans-serif">&#x65B0;&#x6D88;&#x606F;&#x63D0;&#x9192;</text>
  <line x1="118" y1="115" x2="322" y2="82" stroke="#000" stroke-width="1" marker-end="url(#arri)"/>
  <text x="185" y="78" font-size="11" fill="#000" font-family="Microsoft YaHei, SimHei, sans-serif">&#x53D1;&#x9001;&#x6D88;&#x606F;</text>
  <line x1="118" y1="130" x2="322" y2="142" stroke="#000" stroke-width="1" marker-end="url(#arri)"/>
  <text x="180" y="128" font-size="11" fill="#000" font-family="Microsoft YaHei, SimHei, sans-serif">&#x9605;&#x8BFB;&#x6D88;&#x606F;</text>
  <line x1="118" y1="145" x2="332" y2="202" stroke="#000" stroke-width="1" marker-end="url(#arri)"/>
  <text x="195" y="188" font-size="11" fill="#000" font-family="Microsoft YaHei, SimHei, sans-serif">&#x4E0A;&#x4F20;&#x6587;&#x4EF6;</text>
  <line x1="118" y1="160" x2="332" y2="262" stroke="#000" stroke-width="1" marker-end="url(#arri)"/>
  <text x="195" y="248" font-size="11" fill="#000" font-family="Microsoft YaHei, SimHei, sans-serif">&#x4E0B;&#x8F7D;&#x6587;&#x4EF6;</text>
  <line x1="118" y1="175" x2="332" y2="322" stroke="#000" stroke-width="1" marker-end="url(#arri)"/>
  <text x="195" y="298" font-size="11" fill="#000" font-family="Microsoft YaHei, SimHei, sans-serif">&#x63A5;&#x6536;&#x63D0;&#x9192;</text>
</svg>
